#tb 0: 1/30
0,          0,          0,        1,   215040, 0x067c5362
0,          2,          2,        1,   215040, 0xd9eacb98
0,          4,          4,        1,   215040, 0x3c8a4cbd
0,          6,          6,        1,   215040, 0xbdf996e1
0,          8,          8,        1,   215040, 0x1b7fa123
0,         10,         10,        1,   215040, 0x834b4a8d
0,         12,         12,        1,   215040, 0xf4b1bebe
0,         14,         14,        1,   215040, 0x088c3802
0,         16,         16,        1,   215040, 0xf6ddedb9
0,         18,         18,        1,   215040, 0x2791d538
0,         20,         20,        1,   215040, 0x81fe4688
0,         22,         22,        1,   215040, 0xad864fbd
0,         24,         24,        1,   215040, 0xa637a97a
0,         26,         26,        1,   215040, 0x2287e378
0,         28,         28,        1,   215040, 0x13a017d7
0,         30,         30,        1,   215040, 0x89a4acee
0,         32,         32,        1,   215040, 0x97888ffc
0,         34,         34,        1,   215040, 0x7c2c3b58
0,         36,         36,        1,   215040, 0x2e3ab808
0,         38,         38,        1,   215040, 0x2d553af2
0,         40,         40,        1,   215040, 0x929c420e
0,         42,         42,        1,   215040, 0x4841bd6d
0,         44,         44,        1,   215040, 0xb350fbcd
0,         46,         46,        1,   215040, 0x0d70b918
0,         48,         48,        1,   215040, 0xf98b0f47
0,         50,         50,        1,   215040, 0x748b8ff2
0,         52,         52,        1,   215040, 0x62017c38
0,         54,         54,        1,   215040, 0x46042bb4
0,         56,         56,        1,   215040, 0xe7a74806
0,         58,         58,        1,   215040, 0xb4c856e6
0,         60,         60,        1,   215040, 0xb21a28dd
0,         62,         62,        1,   215040, 0x2a6e0834
0,         64,         64,        1,   215040, 0x7044d6ca
0,         66,         66,        1,   215040, 0x17780335
0,         68,         68,        1,   215040, 0x94f51e7a
0,         70,         70,        1,   215040, 0x5beb5f5f
0,         72,         72,        1,   215040, 0xc7d59527
0,         74,         74,        1,   215040, 0x40f69049
0,         76,         76,        1,   215040, 0x1f78740e
0,         78,         78,        1,   215040, 0x49f7265d
0,         80,         80,        1,   215040, 0x057ac5c9
0,         82,         82,        1,   215040, 0x649bd476
0,         84,         84,        1,   215040, 0x1c75aa43
0,         86,         86,        1,   215040, 0xc4bd1e29
0,         88,         88,        1,   215040, 0x5033fa74
0,         90,         90,        1,   215040, 0xba5c949e
0,         92,         92,        1,   215040, 0x2fa78a0e
0,         94,         94,        1,   215040, 0x9d363dce
0,         96,         96,        1,   215040, 0xd1dc82b0
0,         98,         98,        1,   215040, 0xd25be322
0,        100,        100,        1,   215040, 0xf1374ef9
0,        102,        102,        1,   215040, 0x33467b42
0,        104,        104,        1,   215040, 0x7ec7dfad
0,        106,        106,        1,   215040, 0x706ed416
0,        108,        108,        1,   215040, 0x6576b3eb
0,        110,        110,        1,   215040, 0x6576b3eb
0,        112,        112,        1,   215040, 0x6576b3eb
0,        114,        114,        1,   215040, 0x6576b3eb
0,        116,        116,        1,   215040, 0x6576b3eb
0,        118,        118,        1,   215040, 0x6576b3eb
0,        120,        120,        1,   215040, 0x6576b3eb
0,        122,        122,        1,   215040, 0x6873993d
0,        124,        124,        1,   215040, 0x8c2a84d8
0,        126,        126,        1,   215040, 0xdd456bd5
0,        128,        128,        1,   215040, 0x50fa4f3d
0,        130,        130,        1,   215040, 0x00c4369c
0,        132,        132,        1,   215040, 0xe4c220d2
0,        134,        134,        1,   215040, 0xe43a033b
0,        136,        136,        1,   215040, 0x72f6e32c
0,        138,        138,        1,   215040, 0xb738c69c
0,        140,        140,        1,   215040, 0x56bda3fe
0,        142,        142,        1,   215040, 0xaa2f7da3
0,        144,        144,        1,   215040, 0xf21f5c24
0,        146,        146,        1,   215040, 0xd33e3579
0,        148,        148,        1,   215040, 0x6a601495
0,        150,        150,        1,   215040, 0xdfcff1e0
0,        152,        152,        1,   215040, 0xa774d327
0,        154,        154,        1,   215040, 0x8e9db8c9
0,        156,        156,        1,   215040, 0xb4fd9689
0,        158,        158,        1,   215040, 0xa80b77ff
0,        160,        160,        1,   215040, 0x1d9c6568
0,        162,        162,        1,   215040, 0x388c515a
0,        164,        164,        1,   215040, 0x388c515a
0,        166,        166,        1,   215040, 0x388c515a
0,        168,        168,        1,   215040, 0x388c515a
0,        170,        170,        1,   215040, 0x388c515a
0,        172,        172,        1,   215040, 0x388c515a
0,        174,        174,        1,   215040, 0x388c515a
0,        176,        176,        1,   215040, 0x388c515a
0,        178,        178,        1,   215040, 0x388c515a
0,        180,        180,        1,   215040, 0x388c515a
0,        182,        182,        1,   215040, 0x388c515a
0,        184,        184,        1,   215040, 0x3aef5fee
0,        186,        186,        1,   215040, 0x3aef5fee
0,        188,        188,        1,   215040, 0x3aef5fee
0,        190,        190,        1,   215040, 0x3aef5fee
0,        192,        192,        1,   215040, 0x7f8e4b62
0,        194,        194,        1,   215040, 0xbf9fcae8
0,        196,        196,        1,   215040, 0x02f9a66c
0,        198,        198,        1,   215040, 0x00ef062f
0,        200,        200,        1,   215040, 0xe83b132c
0,        202,        202,        1,   215040, 0x2701d21b
0,        204,        204,        1,   215040, 0xbea79188
0,        206,        206,        1,   215040, 0x6f6d3109
0,        208,        208,        1,   215040, 0x4173f1e8
0,        210,        210,        1,   215040, 0xd7adfce1
0,        212,        212,        1,   215040, 0xa3825ffd
0,        214,        214,        1,   215040, 0x41e63fe4
0,        216,        216,        1,   215040, 0xb525b9c5
0,        218,        218,        1,   215040, 0x00000000
